{
	"asset":{
		"version":"2.0",
		"generator":"Maxon Cinema 4D 26.013 (#200000219)"
	},
	"scenes":[{
		"nodes":[0]
	}],
	"bufferViews":[{
		"buffer":0,
		"byteOffset":0,
		"byteLength":72,
		"target":34963
	},
	{
		"buffer":0,
		"byteOffset":72,
		"byteLength":96,
		"target":34962
	},
	{
		"buffer":1,
		"byteOffset":0,
		"byteLength":72,
		"target":34963
	},
	{
		"buffer":1,
		"byteOffset":72,
		"byteLength":96,
		"target":34962
	}],
	"nodes":[{
		"name":"Vectorworksのシーン 名称未設定 1",
		"children":[1]
	},
	{
		"name":"ジオメトリ",
		"children":[2]
	},
	{
		"name":"レイヤ-1",
		"children":[3,
		4]
	},
	{
		"name":"柱状体",
		"mesh":0
	},
	{
		"name":"柱状体",
		"mesh":1
	}],
	"meshes":[{
		"name":"柱状体",
		"primitives":[{
			"indices":0,
			"attributes":{
				"POSITION":1
			},
			"material":0
		}]
	},
	{
		"name":"柱状体",
		"primitives":[{
			"indices":2,
			"attributes":{
				"POSITION":3
			},
			"material":0
		}]
	}],
	"accessors":[{
		"bufferView":0,
		"type":"SCALAR",
		"componentType":5123,
		"count":36,
		"byteOffset":0,
		"min":[0],
		"max":[7]
	},
	{
		"bufferView":1,
		"type":"VEC3",
		"componentType":5126,
		"count":8,
		"byteOffset":0,
		"min":[-0.032999999821186069,
		0.05000000074505806,
		-0.0860000029206276],
		"max":[0.032999999821186069,
		0.05999999865889549,
		-0.019999999552965165]
	},
	{
		"bufferView":2,
		"type":"SCALAR",
		"componentType":5123,
		"count":36,
		"byteOffset":0,
		"min":[0],
		"max":[7]
	},
	{
		"bufferView":3,
		"type":"VEC3",
		"componentType":5126,
		"count":8,
		"byteOffset":0,
		"min":[-0.02500000037252903,
		0.0,
		-0.07800000160932541],
		"max":[0.02500000037252903,
		0.05000000074505806,
		-0.02800000086426735]
	}],
	"buffers":[{
		"uri":"data:application/octet-stream;base64,",
		"byteLength":168
	},
	{
		"uri":"data:application/octet-stream;base64,",
		"byteLength":168
	}],
	"materials":[{
		"pbrMetallicRoughness":{
			"baseColorFactor":[1.0,
			0.7490196228027344,
			0.0,
			1.0],
			"metallicFactor":1.0,
			"roughnessFactor":1.0
		},
		"emissiveFactor":[0.0,
		0.0,
		0.0],
		"alphaMode":"OPAQUE",
		"doubleSided":false,
		"name":"Orange-Yellow 1"
	}]
}